<svg width="499" height="227" viewBox="0 0 499 227" fill="none" 
    xmlns="http://www.w3.org/2000/svg">
    <path d="M99 44C99 44 -1.00001 117.333 0.999992 151C-11 297 316 190 436 165C556 140 465 76 468 63C471 50 381 25 305 5C244.2 -11 142.333 24.3333 99 44Z" fill="#F0D36C"/>
    <path d="M160.742 106C150.342 85.2 103.742 65.3333 81.7424 58C77.409 61.3333 71.3424 68.2 81.7424 69C92.1424 69.8 138.742 111.333 160.742 132C165.076 132 171.142 126.8 160.742 106Z" fill="#CAA459"/>
    <path d="M227.742 74C217.342 53.2 170.742 33.3333 148.742 26C144.409 29.3333 138.342 36.2 148.742 37C159.142 37.8 205.742 79.3333 227.742 100C232.076 100 238.142 94.8 227.742 74Z" fill="#CAA459"/>
    <path d="M317.742 49C307.342 28.2 260.742 8.33333 238.742 1C234.409 4.33333 228.342 11.2 238.742 12C249.142 12.8 295.742 54.3333 317.742 75C322.076 75 328.142 69.8 317.742 49Z" fill="#CAA459"/>
</svg>
